# xmcd CD database file
#
# Track frame offsets:
#	150
#	16708
#	30690
#	45553
#	59901
#	87271
#	112616
#	125286
#	144262
#	156525
#	172383
#	186228
#	198334
#	212261
#	223755
#	236787
#	248550
#	259159
#	272933
#	286880
#
# Disc length: 4002 seconds
#
# Revision: 0
# Processed by: cddbd v1.5.1PL0 Copyright (c) Steve Scherf et al.
# Submitted via: Feurio! 1.68 - http://www.feurio.com
#
DISCID=270fa014
DTITLE=Various Artist - The Cowboys - Country's Greatest
DYEAR=2004
DGENRE=Country
TTITLE0=Willie Nelson - Mamas Don't Let Your Babies Grow Up To Be Cowboys
TTITLE1=Marty Robbins - All Around Cowboy
TTITLE2=Johnny Duncan - Jo And The Cowboy
TTITLE3=Johnny Cash - Bull Rider
TTITLE4=Michael Murphey - Cosmic Cowboy - Cosmic Breakdown
TTITLE5=The Charlie Daniels Band - Sweetwater, Texas
TTITLE6=Johnny Cash - Don't Take Your Guns To Town
TTITLE7=David Allan Coe - Texas Lullaby
TTITLE8=Moe Bandy - Cowboys Ain't Supposed To Cry
TTITLE9=Bobby Bare - The Gambler
TTITLE10=Johnny Cash - Don't Take Your Guns To Town
TTITLE11=Tammy Wynette - Stand By Your Man
TTITLE12=David Houston - Where Love Used To Live
TTITLE13=Johnny Horton - The Battle Of New Orleans
TTITLE14=Marty Robbins - Devil Woman
TTITLE15=Ray Price - Pride
TTITLE16=Flatt and Scruggs - Foggy Mountain Breakdown
TTITLE17=Jimmy Dean - Big Bad John
TTITLE18=Lefty Frizzell - Saginaw, Michigan
TTITLE19=Claude King - Wolverton Mountain
EXTD=Songwriter: Various\r\nKomponist: Various\r\nArrangement: 
EXTD=CBS\r\nAlbum:\r\nCBS 84693 (1980 CBS Inc.)\r\n  KH 30346 (1974 CBS 
EXTD=Inc.)\r\n
EXTT0=Songwriter: Ed Bruce\r\nKomponist: P. Bruce\r\nArrangement: Willie 
EXTT0=Nelson\r\nKommentar: 1978\r\n
EXTT1=Songwriter: Marty Robbins\r\nKomponist: Marty Robbins\r\nArrangement: 
EXTT1=Billy Sherrill\r\nKommentar: 1979\r\n
EXTT2=Songwriter: Johnny Duncan\r\nKomponist: Johnny Duncan\r\nArrangement: 
EXTT2=Billy Sherrill\r\nKommentar: 1975\r\n
EXTT3=Songwriter: Rodney Crowell\r\nKomponist: Rodney Crowell\r\nArrangement: 
EXTT3=Brian Ahern\r\nKommentar: 1979\r\n
EXTT4=Songwriter: Michael Murphey\r\nKomponist: Michael 
EXTT4=Murphey\r\nArrangement: John Boylan\r\nKommentar: 1979\r\n
EXTT5=Songwriter: Charlie Daniels\r\nKomponist: Charlie 
EXTT5=Daniels\r\nArrangement: John Boylan\r\nKommentar: 1976\r\n
EXTT6=Songwriter: Johnny Cash\r\nKomponist: Johnny Cash\r\nArrangement: Johnny 
EXTT6=Cash\r\nKommentar: 1974\r\n
EXTT7=Songwriter: David Allan Coe\r\nKomponist: A. McGowan\r\nArrangement: Ron 
EXTT7=Bledsoe\r\nKommentar: 1976\r\n
EXTT8=Songwriter: D. Owen\r\nKomponist: D. Owen\r\nArrangement: Ray 
EXTT8=Baker\r\nKommentar: 1977\r\n
EXTT9=Songwriter: Don Schlitz\r\nKomponist: Don Schlitz\r\nArrangement: Bobby 
EXTT9=Bare\r\nKommentar: 1978\r\n
EXTT10=Songwriter: Johnny Cash\r\nKomponist: Johnny Cash\r\nArrangement: Don 
EXTT10=Law and Frank Jones\r\nKommentar: 1962\r\n
EXTT11=Songwriter: Billy Sherill\r\nKomponist: Tammy Wynette\r\nArrangement: 
EXTT11=?\r\nKommentar: 1974\r\n
EXTT12=Songwriter: Billy Sherill\r\nKomponist: Guy Sutton\r\nArrangement: 
EXTT12=?\r\nKommentar: 1974\r\n
EXTT13=Songwriter: Jimmy Driftwood\r\nKomponist: Jimmy 
EXTT13=Driftwood\r\nArrangement: ?\r\nKommentar: 1974\r\n
EXTT14=Songwriter: Marty Robbins\r\nKomponist: Marty Robbins\r\nArrangement: 
EXTT14=?\r\nKommentar: 1974\r\n
EXTT15=Songwriter: Ian Stanton\r\nKomponist: W. Walker\r\nArrangement: 
EXTT15=?\r\nKommentar: 1974\r\n
EXTT16=Songwriter: Earl Scruggs\r\nKomponist: Earl Scruggs\r\nArrangement: 
EXTT16=?\r\nKommentar: 1974\r\n
EXTT17=Songwriter: Jimmy Dean\r\nKomponist: Jimmy Dean\r\nArrangement: 
EXTT17=?\r\nKommentar: 1974\r\n
EXTT18=Songwriter: D. Wayne\r\nKomponist: Bill Anderson\r\nArrangement: 
EXTT18=?\r\nKommentar: 1974\r\n
EXTT19=Songwriter: Merle Kilgore\r\nKomponist: Claude King\r\nArrangement: 
EXTT19=?\r\nKommentar: 1974\r\n
PLAYORDER=
